<mxfile host="app.diagrams.net" modified="2022-07-19T09:32:35.047Z" agent="5.0 (Windows NT 10.0; Win64; x64) AppleWebKit/537.36 (KHTML, like Gecko) Chrome/103.0.0.0 Safari/537.36" etag="IMAUWPLpg3W1ELzsp2Vq" version="20.1.1" type="github">
  <diagram id="07fea595-8f29-1299-0266-81d95cde20df" name="Page-1">
    <mxGraphModel dx="1636" dy="887" grid="1" gridSize="10" guides="1" tooltips="1" connect="1" arrows="1" fold="1" page="1" pageScale="1" pageWidth="1169" pageHeight="827" background="#ffffff" math="0" shadow="0">
      <root>
        <mxCell id="0" />
        <mxCell id="1" parent="0" />
        <mxCell id="tVl8y4RNRxqrjb12IxKI-266" style="edgeStyle=orthogonalEdgeStyle;rounded=0;orthogonalLoop=1;jettySize=auto;html=1;" edge="1" parent="1">
          <mxGeometry relative="1" as="geometry">
            <mxPoint x="240" y="170" as="targetPoint" />
            <mxPoint x="120" y="280" as="sourcePoint" />
            <Array as="points">
              <mxPoint x="160" y="280" />
              <mxPoint x="160" y="170" />
            </Array>
          </mxGeometry>
        </mxCell>
        <mxCell id="tVl8y4RNRxqrjb12IxKI-267" style="edgeStyle=orthogonalEdgeStyle;rounded=0;orthogonalLoop=1;jettySize=auto;html=1;entryX=0;entryY=0.5;entryDx=0;entryDy=0;" edge="1" parent="1" target="tVl8y4RNRxqrjb12IxKI-219">
          <mxGeometry relative="1" as="geometry">
            <mxPoint x="230" y="280" as="targetPoint" />
            <mxPoint x="120" y="280" as="sourcePoint" />
          </mxGeometry>
        </mxCell>
        <mxCell id="tVl8y4RNRxqrjb12IxKI-268" style="edgeStyle=orthogonalEdgeStyle;rounded=0;orthogonalLoop=1;jettySize=auto;html=1;" edge="1" parent="1">
          <mxGeometry relative="1" as="geometry">
            <mxPoint x="240" y="400" as="targetPoint" />
            <mxPoint x="130" y="280" as="sourcePoint" />
            <Array as="points">
              <mxPoint x="160" y="280" />
              <mxPoint x="160" y="400" />
            </Array>
          </mxGeometry>
        </mxCell>
        <mxCell id="tVl8y4RNRxqrjb12IxKI-217" value="&lt;b&gt;Клиент &lt;br&gt;&lt;/b&gt;(физическое лицо, &lt;br&gt;нуждающееся в займе)" style="shape=umlActor;verticalLabelPosition=bottom;verticalAlign=top;html=1;outlineConnect=0;" vertex="1" parent="1">
          <mxGeometry x="50" y="210" width="65" height="130" as="geometry" />
        </mxCell>
        <mxCell id="tVl8y4RNRxqrjb12IxKI-273" style="edgeStyle=orthogonalEdgeStyle;rounded=0;orthogonalLoop=1;jettySize=auto;html=1;entryX=0;entryY=0.5;entryDx=0;entryDy=0;" edge="1" parent="1" source="tVl8y4RNRxqrjb12IxKI-219" target="tVl8y4RNRxqrjb12IxKI-227">
          <mxGeometry relative="1" as="geometry" />
        </mxCell>
        <mxCell id="tVl8y4RNRxqrjb12IxKI-306" style="edgeStyle=orthogonalEdgeStyle;rounded=0;orthogonalLoop=1;jettySize=auto;html=1;" edge="1" parent="1" source="tVl8y4RNRxqrjb12IxKI-219" target="tVl8y4RNRxqrjb12IxKI-217">
          <mxGeometry relative="1" as="geometry">
            <Array as="points">
              <mxPoint x="150" y="280" />
              <mxPoint x="150" y="280" />
            </Array>
          </mxGeometry>
        </mxCell>
        <mxCell id="tVl8y4RNRxqrjb12IxKI-219" value="&lt;b&gt;Отделение банка&lt;/b&gt;" style="whiteSpace=wrap;html=1;aspect=fixed;" vertex="1" parent="1">
          <mxGeometry x="240" y="240" width="80" height="80" as="geometry" />
        </mxCell>
        <mxCell id="tVl8y4RNRxqrjb12IxKI-271" style="edgeStyle=orthogonalEdgeStyle;rounded=0;orthogonalLoop=1;jettySize=auto;html=1;" edge="1" parent="1" source="tVl8y4RNRxqrjb12IxKI-222">
          <mxGeometry relative="1" as="geometry">
            <mxPoint x="400" y="320" as="targetPoint" />
            <Array as="points">
              <mxPoint x="360" y="400" />
              <mxPoint x="360" y="320" />
            </Array>
          </mxGeometry>
        </mxCell>
        <mxCell id="tVl8y4RNRxqrjb12IxKI-222" value="&lt;b&gt;Web-сайт банка&lt;/b&gt;" style="whiteSpace=wrap;html=1;aspect=fixed;" vertex="1" parent="1">
          <mxGeometry x="240" y="360" width="80" height="80" as="geometry" />
        </mxCell>
        <mxCell id="tVl8y4RNRxqrjb12IxKI-272" style="edgeStyle=orthogonalEdgeStyle;rounded=0;orthogonalLoop=1;jettySize=auto;html=1;entryX=0;entryY=0.25;entryDx=0;entryDy=0;" edge="1" parent="1" source="tVl8y4RNRxqrjb12IxKI-223" target="tVl8y4RNRxqrjb12IxKI-227">
          <mxGeometry relative="1" as="geometry">
            <mxPoint x="390" y="240" as="targetPoint" />
            <Array as="points">
              <mxPoint x="360" y="160" />
              <mxPoint x="360" y="240" />
            </Array>
          </mxGeometry>
        </mxCell>
        <mxCell id="tVl8y4RNRxqrjb12IxKI-223" value="&lt;b&gt;Мобильное приложение банка&lt;/b&gt;" style="whiteSpace=wrap;html=1;aspect=fixed;" vertex="1" parent="1">
          <mxGeometry x="240" y="120" width="80" height="80" as="geometry" />
        </mxCell>
        <mxCell id="tVl8y4RNRxqrjb12IxKI-274" style="edgeStyle=orthogonalEdgeStyle;rounded=0;orthogonalLoop=1;jettySize=auto;html=1;entryX=0;entryY=0.5;entryDx=0;entryDy=0;" edge="1" parent="1" source="tVl8y4RNRxqrjb12IxKI-227" target="tVl8y4RNRxqrjb12IxKI-233">
          <mxGeometry relative="1" as="geometry" />
        </mxCell>
        <mxCell id="tVl8y4RNRxqrjb12IxKI-303" style="edgeStyle=orthogonalEdgeStyle;rounded=0;orthogonalLoop=1;jettySize=auto;html=1;entryX=1;entryY=0.5;entryDx=0;entryDy=0;" edge="1" parent="1" source="tVl8y4RNRxqrjb12IxKI-227" target="tVl8y4RNRxqrjb12IxKI-219">
          <mxGeometry relative="1" as="geometry" />
        </mxCell>
        <mxCell id="tVl8y4RNRxqrjb12IxKI-304" style="edgeStyle=orthogonalEdgeStyle;rounded=0;orthogonalLoop=1;jettySize=auto;html=1;entryX=1;entryY=0.5;entryDx=0;entryDy=0;" edge="1" parent="1" source="tVl8y4RNRxqrjb12IxKI-227" target="tVl8y4RNRxqrjb12IxKI-223">
          <mxGeometry relative="1" as="geometry">
            <Array as="points">
              <mxPoint x="360" y="240" />
              <mxPoint x="360" y="160" />
            </Array>
          </mxGeometry>
        </mxCell>
        <mxCell id="tVl8y4RNRxqrjb12IxKI-305" style="edgeStyle=orthogonalEdgeStyle;rounded=0;orthogonalLoop=1;jettySize=auto;html=1;entryX=1;entryY=0.5;entryDx=0;entryDy=0;" edge="1" parent="1" source="tVl8y4RNRxqrjb12IxKI-227" target="tVl8y4RNRxqrjb12IxKI-222">
          <mxGeometry relative="1" as="geometry">
            <Array as="points">
              <mxPoint x="360" y="320" />
              <mxPoint x="360" y="400" />
            </Array>
          </mxGeometry>
        </mxCell>
        <mxCell id="tVl8y4RNRxqrjb12IxKI-227" value="&lt;b&gt;Заявление на выдачу кредита&lt;/b&gt;" style="rounded=1;whiteSpace=wrap;html=1;" vertex="1" parent="1">
          <mxGeometry x="400" y="200" width="120" height="160" as="geometry" />
        </mxCell>
        <mxCell id="tVl8y4RNRxqrjb12IxKI-275" style="edgeStyle=orthogonalEdgeStyle;rounded=0;orthogonalLoop=1;jettySize=auto;html=1;" edge="1" parent="1" source="tVl8y4RNRxqrjb12IxKI-233" target="tVl8y4RNRxqrjb12IxKI-238">
          <mxGeometry relative="1" as="geometry">
            <mxPoint x="760" y="120" as="targetPoint" />
            <Array as="points">
              <mxPoint x="720" y="90" />
            </Array>
          </mxGeometry>
        </mxCell>
        <mxCell id="tVl8y4RNRxqrjb12IxKI-278" style="edgeStyle=orthogonalEdgeStyle;rounded=0;orthogonalLoop=1;jettySize=auto;html=1;exitX=1;exitY=0;exitDx=0;exitDy=0;entryX=0;entryY=0.5;entryDx=0;entryDy=0;" edge="1" parent="1" source="tVl8y4RNRxqrjb12IxKI-233" target="tVl8y4RNRxqrjb12IxKI-239">
          <mxGeometry relative="1" as="geometry" />
        </mxCell>
        <mxCell id="tVl8y4RNRxqrjb12IxKI-279" style="edgeStyle=orthogonalEdgeStyle;rounded=0;orthogonalLoop=1;jettySize=auto;html=1;exitX=1;exitY=1;exitDx=0;exitDy=0;entryX=0;entryY=0.5;entryDx=0;entryDy=0;" edge="1" parent="1" source="tVl8y4RNRxqrjb12IxKI-233" target="tVl8y4RNRxqrjb12IxKI-240">
          <mxGeometry relative="1" as="geometry">
            <Array as="points">
              <mxPoint x="860" y="330" />
              <mxPoint x="860" y="350" />
            </Array>
          </mxGeometry>
        </mxCell>
        <mxCell id="tVl8y4RNRxqrjb12IxKI-280" style="edgeStyle=orthogonalEdgeStyle;rounded=0;orthogonalLoop=1;jettySize=auto;html=1;exitX=1;exitY=1;exitDx=0;exitDy=0;entryX=0.199;entryY=0.097;entryDx=0;entryDy=0;entryPerimeter=0;" edge="1" parent="1" source="tVl8y4RNRxqrjb12IxKI-233" target="tVl8y4RNRxqrjb12IxKI-241">
          <mxGeometry relative="1" as="geometry">
            <mxPoint x="780" y="390" as="targetPoint" />
            <Array as="points">
              <mxPoint x="780" y="411" />
            </Array>
          </mxGeometry>
        </mxCell>
        <mxCell id="tVl8y4RNRxqrjb12IxKI-281" style="edgeStyle=orthogonalEdgeStyle;rounded=0;orthogonalLoop=1;jettySize=auto;html=1;entryX=0.5;entryY=0;entryDx=0;entryDy=0;" edge="1" parent="1" source="tVl8y4RNRxqrjb12IxKI-233" target="tVl8y4RNRxqrjb12IxKI-264">
          <mxGeometry relative="1" as="geometry" />
        </mxCell>
        <mxCell id="tVl8y4RNRxqrjb12IxKI-302" style="edgeStyle=orthogonalEdgeStyle;rounded=0;orthogonalLoop=1;jettySize=auto;html=1;" edge="1" parent="1" source="tVl8y4RNRxqrjb12IxKI-233">
          <mxGeometry relative="1" as="geometry">
            <mxPoint x="520" y="280" as="targetPoint" />
          </mxGeometry>
        </mxCell>
        <mxCell id="tVl8y4RNRxqrjb12IxKI-233" value="&lt;b&gt;Отдел принятия решений&lt;/b&gt;&lt;br&gt;(обрабатывает заявление&lt;br&gt;&amp;nbsp;и собирает из источников данные, &lt;br&gt;необходимые для оценки&lt;br&gt;&amp;nbsp;кредитных рисков" style="rhombus;whiteSpace=wrap;html=1;" vertex="1" parent="1">
          <mxGeometry x="600" y="180" width="240" height="200" as="geometry" />
        </mxCell>
        <mxCell id="tVl8y4RNRxqrjb12IxKI-301" style="edgeStyle=orthogonalEdgeStyle;rounded=0;orthogonalLoop=1;jettySize=auto;html=1;entryX=0.5;entryY=0;entryDx=0;entryDy=0;" edge="1" parent="1" source="tVl8y4RNRxqrjb12IxKI-238" target="tVl8y4RNRxqrjb12IxKI-233">
          <mxGeometry relative="1" as="geometry" />
        </mxCell>
        <mxCell id="tVl8y4RNRxqrjb12IxKI-238" value="&lt;b&gt;АБС&lt;br&gt;&lt;/b&gt;(автоматизированная банковская система)" style="ellipse;whiteSpace=wrap;html=1;" vertex="1" parent="1">
          <mxGeometry x="960" y="40" width="150" height="100" as="geometry" />
        </mxCell>
        <mxCell id="tVl8y4RNRxqrjb12IxKI-300" style="edgeStyle=orthogonalEdgeStyle;rounded=0;orthogonalLoop=1;jettySize=auto;html=1;entryX=1;entryY=0;entryDx=0;entryDy=0;" edge="1" parent="1" source="tVl8y4RNRxqrjb12IxKI-239" target="tVl8y4RNRxqrjb12IxKI-233">
          <mxGeometry relative="1" as="geometry" />
        </mxCell>
        <mxCell id="tVl8y4RNRxqrjb12IxKI-239" value="&lt;b&gt;Данные партнёров банка&lt;/b&gt;" style="ellipse;whiteSpace=wrap;html=1;" vertex="1" parent="1">
          <mxGeometry x="980" y="160" width="150" height="100" as="geometry" />
        </mxCell>
        <mxCell id="tVl8y4RNRxqrjb12IxKI-299" style="edgeStyle=orthogonalEdgeStyle;rounded=0;orthogonalLoop=1;jettySize=auto;html=1;" edge="1" parent="1" source="tVl8y4RNRxqrjb12IxKI-240">
          <mxGeometry relative="1" as="geometry">
            <mxPoint x="780" y="330" as="targetPoint" />
            <Array as="points">
              <mxPoint x="860" y="350" />
              <mxPoint x="860" y="330" />
            </Array>
          </mxGeometry>
        </mxCell>
        <mxCell id="tVl8y4RNRxqrjb12IxKI-240" value="&lt;b&gt;Данные из открытых источников&lt;/b&gt;" style="ellipse;whiteSpace=wrap;html=1;" vertex="1" parent="1">
          <mxGeometry x="980" y="300" width="150" height="100" as="geometry" />
        </mxCell>
        <mxCell id="tVl8y4RNRxqrjb12IxKI-241" value="&lt;b&gt;Кредитное бюро&lt;/b&gt;&lt;br&gt;(формирует, обрабатывает и храненит кредитные истории, предоставляет кредитные отчёты)" style="ellipse;whiteSpace=wrap;html=1;" vertex="1" parent="1">
          <mxGeometry x="970" y="414" width="190" height="110" as="geometry" />
        </mxCell>
        <mxCell id="tVl8y4RNRxqrjb12IxKI-259" value="1." style="text;html=1;align=center;verticalAlign=middle;resizable=0;points=[];autosize=1;strokeColor=none;fillColor=none;" vertex="1" parent="1">
          <mxGeometry x="690" y="140" width="30" height="30" as="geometry" />
        </mxCell>
        <mxCell id="tVl8y4RNRxqrjb12IxKI-260" value="2." style="text;html=1;align=center;verticalAlign=middle;resizable=0;points=[];autosize=1;strokeColor=none;fillColor=none;" vertex="1" parent="1">
          <mxGeometry x="800" y="200" width="30" height="30" as="geometry" />
        </mxCell>
        <mxCell id="tVl8y4RNRxqrjb12IxKI-261" value="3." style="text;html=1;align=center;verticalAlign=middle;resizable=0;points=[];autosize=1;strokeColor=none;fillColor=none;" vertex="1" parent="1">
          <mxGeometry x="820" y="300" width="30" height="30" as="geometry" />
        </mxCell>
        <mxCell id="tVl8y4RNRxqrjb12IxKI-298" style="edgeStyle=orthogonalEdgeStyle;rounded=0;orthogonalLoop=1;jettySize=auto;html=1;entryX=1;entryY=1;entryDx=0;entryDy=0;" edge="1" parent="1" target="tVl8y4RNRxqrjb12IxKI-233">
          <mxGeometry relative="1" as="geometry">
            <mxPoint x="780" y="340" as="targetPoint" />
            <mxPoint x="780" y="410" as="sourcePoint" />
          </mxGeometry>
        </mxCell>
        <mxCell id="tVl8y4RNRxqrjb12IxKI-262" value="4." style="text;html=1;align=center;verticalAlign=middle;resizable=0;points=[];autosize=1;strokeColor=none;fillColor=none;" vertex="1" parent="1">
          <mxGeometry x="780" y="370" width="30" height="30" as="geometry" />
        </mxCell>
        <mxCell id="tVl8y4RNRxqrjb12IxKI-263" value="5." style="text;html=1;align=center;verticalAlign=middle;resizable=0;points=[];autosize=1;strokeColor=none;fillColor=none;" vertex="1" parent="1">
          <mxGeometry x="680" y="490" width="30" height="30" as="geometry" />
        </mxCell>
        <mxCell id="tVl8y4RNRxqrjb12IxKI-265" style="edgeStyle=orthogonalEdgeStyle;rounded=0;orthogonalLoop=1;jettySize=auto;html=1;exitX=0.066;exitY=0.428;exitDx=0;exitDy=0;exitPerimeter=0;" edge="1" parent="1" source="tVl8y4RNRxqrjb12IxKI-264">
          <mxGeometry relative="1" as="geometry">
            <mxPoint x="520" y="720" as="targetPoint" />
            <Array as="points">
              <mxPoint x="646" y="640" />
              <mxPoint x="520" y="640" />
            </Array>
          </mxGeometry>
        </mxCell>
        <mxCell id="tVl8y4RNRxqrjb12IxKI-287" style="edgeStyle=orthogonalEdgeStyle;rounded=0;orthogonalLoop=1;jettySize=auto;html=1;" edge="1" parent="1" source="tVl8y4RNRxqrjb12IxKI-264">
          <mxGeometry relative="1" as="geometry">
            <mxPoint x="520" y="560" as="targetPoint" />
            <Array as="points">
              <mxPoint x="520" y="640" />
            </Array>
          </mxGeometry>
        </mxCell>
        <mxCell id="tVl8y4RNRxqrjb12IxKI-290" style="edgeStyle=orthogonalEdgeStyle;rounded=0;orthogonalLoop=1;jettySize=auto;html=1;" edge="1" parent="1">
          <mxGeometry relative="1" as="geometry">
            <mxPoint x="850" y="640" as="targetPoint" />
            <mxPoint x="795" y="640" as="sourcePoint" />
          </mxGeometry>
        </mxCell>
        <mxCell id="tVl8y4RNRxqrjb12IxKI-264" value="&lt;b&gt;Аналитический отдел&lt;/b&gt;&lt;br&gt;(машинный интеллект)" style="shape=parallelogram;perimeter=parallelogramPerimeter;whiteSpace=wrap;html=1;fixedSize=1;" vertex="1" parent="1">
          <mxGeometry x="635" y="600" width="170" height="90" as="geometry" />
        </mxCell>
        <mxCell id="tVl8y4RNRxqrjb12IxKI-293" style="edgeStyle=orthogonalEdgeStyle;rounded=0;orthogonalLoop=1;jettySize=auto;html=1;" edge="1" parent="1" source="tVl8y4RNRxqrjb12IxKI-286">
          <mxGeometry relative="1" as="geometry">
            <mxPoint x="640" y="320" as="targetPoint" />
            <Array as="points">
              <mxPoint x="440" y="760" />
              <mxPoint x="440" y="400" />
              <mxPoint x="610" y="400" />
              <mxPoint x="610" y="321" />
            </Array>
          </mxGeometry>
        </mxCell>
        <mxCell id="tVl8y4RNRxqrjb12IxKI-286" value="Оценка от 0 до 30,&lt;br&gt;&lt;b&gt;Отказ&lt;/b&gt;" style="shape=hexagon;perimeter=hexagonPerimeter2;whiteSpace=wrap;html=1;fixedSize=1;" vertex="1" parent="1">
          <mxGeometry x="450" y="720" width="145" height="80" as="geometry" />
        </mxCell>
        <mxCell id="tVl8y4RNRxqrjb12IxKI-296" style="edgeStyle=orthogonalEdgeStyle;rounded=0;orthogonalLoop=1;jettySize=auto;html=1;exitX=0.5;exitY=0;exitDx=0;exitDy=0;" edge="1" parent="1">
          <mxGeometry relative="1" as="geometry">
            <mxPoint x="640" y="320" as="targetPoint" />
            <mxPoint x="520" y="480" as="sourcePoint" />
            <Array as="points">
              <mxPoint x="520" y="400" />
              <mxPoint x="610" y="400" />
              <mxPoint x="610" y="320" />
            </Array>
          </mxGeometry>
        </mxCell>
        <mxCell id="tVl8y4RNRxqrjb12IxKI-288" value="Оценка от 70 до 99,&lt;br&gt;&lt;b&gt;Одобрение&lt;/b&gt;" style="shape=hexagon;perimeter=hexagonPerimeter2;whiteSpace=wrap;html=1;fixedSize=1;" vertex="1" parent="1">
          <mxGeometry x="450" y="480" width="145" height="80" as="geometry" />
        </mxCell>
        <mxCell id="tVl8y4RNRxqrjb12IxKI-297" style="edgeStyle=orthogonalEdgeStyle;rounded=0;orthogonalLoop=1;jettySize=auto;html=1;exitX=0.5;exitY=0.115;exitDx=0;exitDy=0;exitPerimeter=0;" edge="1" parent="1" source="tVl8y4RNRxqrjb12IxKI-291" target="tVl8y4RNRxqrjb12IxKI-233">
          <mxGeometry relative="1" as="geometry">
            <mxPoint x="760" y="390" as="targetPoint" />
            <Array as="points">
              <mxPoint x="985" y="550" />
              <mxPoint x="760" y="550" />
            </Array>
          </mxGeometry>
        </mxCell>
        <mxCell id="tVl8y4RNRxqrjb12IxKI-291" value="&lt;b&gt;Дополнительный анализ&lt;br&gt;&amp;nbsp;заемщиков&lt;/b&gt; &lt;br&gt;(для клиентов&lt;br&gt;&amp;nbsp;с оценкой&amp;nbsp;от 31 до 69, &lt;br&gt;решения в блоке принимаются вручную)" style="ellipse;shape=cloud;whiteSpace=wrap;html=1;" vertex="1" parent="1">
          <mxGeometry x="830" y="570" width="310" height="162.5" as="geometry" />
        </mxCell>
      </root>
    </mxGraphModel>
  </diagram>
</mxfile>
